<svg xmlns="http://www.w3.org/2000/svg" width="720" height="701.333" version="1.0" viewBox="0 0 540 526">
  <rect width="100%" height="100%" fill="#ffffff"/>
  
  <path d="M198.7 20.4c-4.85 1.35-7.85 3.6-15.15 11.55-7.6 8.3-7.4 8.15-10.3 7.35-6.45-1.65-16.55-.65-24.75 2.5-4.4 1.75-10.45 3.75-13.5 4.55-13.05 3.35-16.35 6.75-17.3 17.9-.5 5.45-1.2 7.5-3.6 10.5-8.05 10.2-9.9 18.95-6.6 31.6 2.15 8.15 2.1 8.2-4.25 12.2-26.3 16.6-27.55 35.25-2.85 43.4 3.8 1.25 8.3 9.75 11.25 21.25 2.1 8.3 1.35 8.25-6.65-.45-9.55-10.3-22.15-15.55-26.35-10.9-2.75 3.05-2 4.85 7.15 17 8.4 11.15 10.45 14.15 20.1 29.3 13.55 21.4 35.65 28.75 61.15 20.45 19.85-6.45 20.5-8.95 3.4-13.65-21.3-5.8-26.05-7.4-33.45-11.2-11.5-5.85-17.3-13.2-20.55-26.2-1.2-4.85-5.55-17.15-8.7-24.65-4.15-9.9 4.5-6.75 13.25 4.8 1.95 2.6 9.25 17.3 12.05 24.3 7.1 17.8 18.75 25.1 42.4 26.55l11.25.7 5.35 8.15c2.95 4.45 9.55 12.3 14.65 17.4 14.4 14.4 15.4 17.8 4.05 13.7-5.35-1.9-22.6-1.7-25.05.35-4 3.3-11.8 5-18.5 4-9.3-1.35-14.2-.45-18.7 3.5-9.05 7.8 1.85 11.7 15.15 5.4l6.85-3.25 18.8.35c15.4.25 19.2.05 21.05-1.15 14.85-9.75 29.65 23.05 22.7 50.3-1.2 4.65-5.35 16.15-9.25 25.5s-8.15 19.9-9.45 23.5c-1.3 3.55-2.8 7.4-3.35 8.5-2 4.25-9.25 28.1-12.1 39.75-12 49.15 9.9 70.25 73.1 70.25 30.85 0 43.7-5.7 52.15-23.2 9.85-20.25 4.1-37.05-15.25-44.85-7.4-2.95-8.25-3.65-9.4-7.3-.6-1.95.15-3.15 4.55-7.2 7.35-6.75 5.6-14.6-4.65-21.25-4.05-2.65-4.15-4.2-.9-12.2 3.65-8.8 3.35-10.7-2.55-16.95-3.9-4.1-5.9-5.45-8.95-5.95-6.5-1-12.65-14.9-10.35-23.4 1.35-5.05 16.3-16.2 21.85-16.25 2.75 0 7.05-.5 9.5-1.05 10.25-2.3 9.7-2.4 11.6 1.25 1.3 2.35 1.95 6.6 2.35 14.5.75 14.7 3.6 18 16.55 19.25l6 .6.3 8.1c.4 11.6 2.6 13.65 15.45 14.4 11.5.65 12.45 1.8 13.65 16.7 1.1 13 4.5 21.65 10.7 26.95 17.7 15.2 30.05 15.55 47.85 1.4 3.35-2.65 10.55-8.15 16.05-12.3 31.05-23.2 41.95-40.1 39.65-61.4-2.6-24.25-7.55-29.1-41.65-40.7-20.4-6.95-34.7-12.1-43.5-15.65-3-1.2-7.3-2.85-9.5-3.65-6.7-2.45-37.65-18.05-43.65-22.1-13.7-9.05-17.15-11.8-21.9-17.1-9.1-10.2-12.55-20.55-13.6-40.75l-.65-12.9 4.8-9.5c3.5-7 6.1-10.7 9.85-14 18.15-16.1 21.6-22.15 14.2-25-9.85-3.75-25.85 17.2-29.6 38.85-2.25 12.6-7.3 15.45-15.9 8.9C286.8 174 283.65 172 281.4 172c-3.2 0-3.05-.6 1.45-5.1 6.55-6.55 9.15-15.55 9.15-31.6 0-29.15 4.25-36.3 22.75-37.95l12.65-1.15 3.3-3.6c3.85-4.15 4.1-6.3 1.25-9.95-4.65-5.9-16.85-2.8-27.95 7.05-3 2.7-7.55 5.7-10.1 6.6-6.8 2.6-10.35 5.6-17.9 15.35-18.75 24.2-23.05 38.45-16.5 54.55 3.8 9.3 2.75 10.25-6.2 5.8-9.3-4.65-9.8-6-9.8-27.65 0-18.7.8-22.35 4.9-22.35 2.05 0 13-7.4 16.05-10.85C273.85 100.5 277.5 86.4 277.5 61c0-24.15-3.4-28.65-22.7-30.2-12.95-1-20.65-2.75-28.1-6.25-10.95-5.15-19.45-6.4-28-4.15m20.35 5.1c4.1 1.4 9 3.25 10.9 4.15C236 32.5 243.25 34 251.5 34c17.9.05 23.1 6.15 22.9 27-.2 29.4-6.25 45.1-20.65 53.85-8.95 5.4-10.75 5.55-10.75.7 0-2.75.9-3.9 6.75-8.5 14.75-11.6 18.25-24.2 11.3-40.5-1.15-2.6-2.05-5.2-2.05-5.8 0-1.6-6.45-10.9-9.65-13.95-7.8-7.4-23.45-8.3-40.35-2.3-11.2 3.95-12.1 4-17.8 1.1-2.85-1.45-5.85-2.6-6.7-2.6-3.5 0-2.6-3.15 2.65-9.35 9.15-10.85 17.6-13 31.9-8.15m-44.9 19.2c.95.85 2.6 1.15 4.05.8 2.9-.75 13.8 3.85 13.8 5.85 0 .7-1.95 2.2-4.35 3.35l-4.35 2.1-3.9-2.15c-2.7-1.55-4.05-3.05-4.4-5l-.5-2.85-4.05 3.85c-2.25 2.1-6.6 5.8-9.75 8.15-10.6 8.05-17.85 28.6-13.9 39.55 2.1 5.8 1.85 6.2-4.65 5.8-12.05-.65-15.9 3.1-11.75 11.6 3 6.1 2.85 7.5-.5 4.35-3.1-2.85-11.8-7.3-12.9-6.6-2.25 1.4-4.7-1.6-5.95-7.2-2.7-11.9-1.3-19.1 5.5-28.4 4.25-5.75 5.3-8.6 5.9-15.6.6-7.15 2.85-9.15 14-12.35 4.45-1.3 10.1-3.2 12.55-4.35 7.95-3.55 21.5-4.05 25.15-.9m68.45 1.9c14.55 7.65 22.55 26.4 17.95 41.95C258.9 94 249.8 104 244.75 105.9c-3.05 1.15-2.75 2.1-3.2-9.4C241.1 83.6 236.1 72 231 72c-1.1 0-3.05-1.8-4.7-4.25-1.55-2.35-4.3-5-6.15-5.9-1.8-.9-4.05-2.35-4.95-3.15-.95-.8-3.6-2.4-5.9-3.55-8.25-4.2-7-5.35 10.7-10.05 7.4-1.95 17.3-1.3 22.6 1.5m-35.8 11.05c19.85 12 18.95 10.6 19.7 30.85.3 8.8.8 16.75 1.05 17.65.95 3.05-3.15 5.95-23.05 16.35-7.15 3.75-14.1 7.55-15.5 8.45-10.6 7.1-23.35 4.25-31.1-6.95-6.25-9.05-6.15-14.1.2-9.15 4.3 3.4 15.6 7.4 17.7 6.25 1-.55 4.15-1.3 6.95-1.65 23.45-3.1 47.15-39.95 33.2-51.65-9-7.5-22.4-7.4-32.1.25-2.05 1.6-5.8 3.35-8.35 3.95-13 2.9-21.95 12.45-19.55 20.85 2.2 7.65 12.3 18.95 18.8 21.1 2.35.75 4.25 1.95 4.25 2.7 0 1.85-5.45 1.75-7-.15-.7-.85-2.25-1.5-3.45-1.5-6.5 0-15.1-6.65-17-13.2-4.95-16.55-.3-31.3 13.15-41.9 7.1-5.55 7.45-5.65 11.3-2.9 5.7 4.05 13.1 3.05 18.7-2.55 2.25-2.25 3.85-1.8 12.1 3.2m1.4 9.25c9.05 3.45 11.4 12.6 5.7 22.3-9.95 16.9-25.45 27.45-33.65 22.85-.95-.55-3.45-1.65-5.5-2.45-7.55-3-4.4-5.5 7.8-6.25 12.75-.8 16.45-2.65 21.55-10.85 2.65-4.25 2.4-7.65-.85-10.75-12.65-12.15-37.15-.45-30.8 14.75 3.1 7.45-3.05 9.1-8.8 2.4-8.35-9.75-3.05-20 11.65-22.75 2.55-.5 7.45-2.7 10.9-4.9 8.5-5.45 15.55-6.85 22-4.35m26.5 13.4c4.7 10.3 4.7 23.35 0 25.85-3.2 1.75-3.95-.4-4.45-13-.65-14.65 1.25-20 4.45-12.85m-35.85 2.6c5.15 3.65 4.2 5.45-2.35 4.65-8.3-1.05-11.05-.1-14.6 5.1-3.8 5.5-6.25 5.55-6.7 0-.85-10.2 14.3-16.4 23.65-9.75m130.95 3.35c.45 2.35-4.15 6.4-8.1 7.1-13 2.3-17.75 1.55-14.25-2.3 1-1.1 2.4-2.05 3-2.05.65 0 2.7-1.15 4.6-2.55 4.25-3.15 14.15-3.3 14.75-.2m-134.55 4.8c7.3 2 2.85 7.25-7.1 8.3-5.1.55-5.35-2.8-.55-7.1 2.9-2.6 2.7-2.55 7.65-1.2M295 100.3c0 .15-1.15 3.65-2.55 7.75-2.15 6.3-2.65 10.25-3.35 25.6-1.1 23.9-6.15 33.95-18.9 37.85-7.7 2.3-13.05-16.5-8.55-30.05 2.35-7.2 18.2-30.3 25-36.55 3.7-3.4 8.35-5.95 8.35-4.6m-147.55 8.1c3.1 1.3 3.45 1.85 4.1 6.95 1.65 13.4 11.1 22.15 23.85 22.15 9.2 0 11.9-1.1 37.4-15.25 14.45-8 19-9.15 13.45-3.35-4.1 4.3-4.6 7.35-3.2 19.6 2.9 25.2 3.1 24.45-5.9 18.45C205.25 149 193.25 146 167 144.3c-15.45-.95-19.3-4.35-32.9-28.6-4.1-7.3 3.45-11.45 13.35-7.3m93.55-.2c0 1.05-6.05 4.8-7.85 4.8-2.1 0-.75-2.25 2.4-4.05 3.25-1.75 5.45-2.1 5.45-.75m-1.05 11.05c-.05 6.15-4.2 8.9-6.05 4.05-1.45-3.85.25-7.3 3.6-7.3 2.15 0 2.5.45 2.45 3.25m-111.4 3.65c5.55 5.05 15.75 17.45 16.25 19.65.65 2.7-8.1.55-14.25-3.55-4.6-3.1-15.75-19.4-14.25-20.9 1.9-1.9 7.2.2 12.25 4.8m-14.45-.65c5.65 13.9 14.5 21.95 27.9 25.4 8.05 2.05 8.45 2.45 14.55 14.85 1.6 3.25 5.35 8.35 8.25 11.25l5.3 5.25h7.4c5.75 0 9.75-.8 18.05-3.5 17.9-5.85 24.8-2.7 23.05 10.4-2.6 19.6-26.4 36.4-32.65 23.05-2.8-6-8.4-11.4-14.85-14.2-2.5-1.1-7-3.55-9.95-5.45-8.5-5.4-20.1-11.5-21.2-11.1-2.3.75 5.6 6.75 16.7 12.75 17.4 9.3 21.1 11.85 24.45 16.7 5 7.25 3.5 8.9-6.9 7.3-28.1-4.25-28.75-4.8-45.1-39.1-8.8-18.5-23.45-28.8-26.65-18.75-.95 3.1-4.35 1.35-13.7-7-5.6-5-2.8-12.75 7.85-21.85 11.9-10.15 15.3-11.3 17.5-6m116.8.9c.6 1.75 1.1 7.95 1.1 13.85 0 10.25.1 10.65 2.15 10.6 3.05-.15 5.65 9.7 6.5 24.75.8 14.4-.2 15-5.9 3.6-3.75-7.4-3.75-7.5-3.15-16.2.55-7.35.45-8.7-.75-8.25-4.25 1.65-6.2-5.1-5.15-17.55 1.3-14.6 2.8-17.7 5.2-10.8m9.9 10.8c.4 4.05-.5 8.05-1.8 8.05-.55 0-1-2.75-1-6.1 0-6.6 2.2-8.15 2.8-1.95M342 139.4c0 .75-.65 1.9-1.5 2.6-.8.7-1.5 1.8-1.5 2.5 0 .75-1.45 2.15-3.25 3.25-1.8 1.05-5.75 4.2-8.85 7.05-6.4 5.85-7.75 5.8-4.7-.15 5.6-11.1 19.8-22 19.8-15.25m-182.5 7.65c2.2.45 7.15.9 11 .9 15.2.15 33.15 4.8 43.9 11.35 3.8 2.3 8.3 4.7 10 5.3 2.55.9 3.45 2.15 5.3 7.3 1.2 3.45 2.85 7.45 3.6 8.9.8 1.5 2.65 5.15 4.2 8.15l2.8 5.45-1.75 16.85c-2.15 20.2-1.6 25.75 3.8 37.75 3.75 8.4 14.55 17.75 25.45 21.95 2.9 1.15 7.95 3.45 11.15 5.1l5.8 3.05.45 8.75c.3 6.95.9 9.55 2.7 12.5l2.35 3.75-4.85 4.45c-5.65 5.2-5.95 5.25-9 1.95-4-4.35-10.55-3.6-16.05 1.85-4.95 4.95-5.6 8.4-2.25 11.75 2.15 2.15 2.3 2.15 12.4.7 1.75-.25 2 .3 2.15 4.9.1 4.05 1.1 7 4.65 13.7l4.6 8.6-2.35 2.75c-3.35 4-6.4 14.8-7.15 25.5-.7 10.5-1.85 12.9-7.3 15.7-7.2 3.7-9.9 9.1-6.15 12.5 2.85 2.6 6.8.9 9.45-4.05 3.4-6.35 5.85-9 10.65-11.35 2.45-1.25 6.35-4.25 8.65-6.7 4.85-5.15 5.15-5.1 12.6 1.85 6.1 5.75 6.75 8.2 2.7 10.3-11.8 6.1-8.55 18.25 6.4 23.7 14.25 5.2 19.2 18.1 13.3 34.5-6.95 19.55-29.35 28.55-62.95 25.25-59.25-5.75-72.25-28.9-50.15-89.3.85-2.3 2.35-6.85 3.35-10.15 2-6.45 7.65-21.1 14.1-36.5 2.15-5.25 3.95-10.45 3.95-11.6 0-1.2.85-3.2 1.9-4.5 10.3-13.15 5.85-50.35-7.5-62.9-4.1-3.85-4.3-4.3-3.8-8.3l.6-4.2-10.8-10c-10.15-9.4-19.4-21.25-19.4-24.85 0-.95 2.4-2.3 6.6-3.7 15.05-5 28.65-27.9 23-38.75-4.45-8.55-14.6-10.85-25.05-5.6-12 5.95-32.55 3.5-32.55-3.85 0-.5-1.35-2.85-3-5.25s-3.4-5.4-3.9-6.65c-.5-1.3-2.1-3.9-3.5-5.8-3.2-4.25-3.3-5.5-.35-4.6 1.25.4 4.05 1.1 6.25 1.6m90.95 27.55c4.9 2.75 7.8 2.85 27.05.85 4.9-.5 5.15-.4 12 5.1 9.25 7.45 11.95 8.8 16.65 8.15 4.9-.65 4.7-1.2 5.75 14.6 1.6 23.5 7.4 32.9 31.25 50.35 9.45 6.9 34.05 19.7 48.85 25.4 23.6 9.15 43.1 16.25 57.5 20.95 5.5 1.85 10.45 3.6 11 3.95.55.4 2.9 1.3 5.25 2.05 18.65 5.85 25.55 37.6 12.35 56.8-8.5 12.4-47.5 45.4-61.1 51.75-16.35 7.6-37.2-10.45-39.9-34.65-2.05-18.1-3.5-19.9-16.1-19.9-10.45 0-13-2.4-13-12.45 0-5.2 1.75-7.7 8.4-11.95 6.35-4.05 10.45-9.85 8.6-12.15-3.3-3.95-11.15.5-15.6 8.85-2.8 5.2-11.15 6.25-18.5 2.35l-4.4-2.3-.5-10.95c-.4-8.7-.95-11.75-2.75-15.2-1.25-2.35-2.25-4.35-2.25-4.5s3.15-3.45 7-7.4c10.15-10.45 10.25-20.05.15-17.85-5.3 1.2-11.15 8.95-11.1 14.75v3.3l2.25-4.1c5.7-10.65 12.6-14.55 12.7-7.25 0 2.7-9.85 12.85-12.5 12.85-1.3 0-2.95 1.05-3.85 2.4-1.05 1.6-3.25 2.85-6.35 3.6-11.7 2.8-12 2.7-9.6-4.1 2.35-6.45 1.2-9.4-6-16.15l-6.2-5.8-.65-21.6c-1.25-41-1.65-41.8-23.05-49.4-16.75-5.95-20.8-11.2-20-25.85.5-8.1.35-8 6.65-4.5M93.1 177.1c4.6 2.5 7.75 5.45 15.1 14.25C124.5 211 132.45 218 138.35 218c.75 0 2.45.85 3.75 1.85 1.35 1.05 4 2.2 5.9 2.6 1.95.35 4.65 1.05 6 1.5 1.4.45 5 1.5 8 2.35 3.05.8 7.45 2 9.8 2.65 7.1 1.9 3.3 4.05-16.3 9.2-8.4 2.15-23.85-1.1-31.7-6.7-9.6-6.9-10.7-8.2-22.8-27.5-3-4.8-8.75-12.9-12.75-17.95-10.05-12.8-8.35-15.9 4.85-8.9m155.2 23.65c1.95 2.15 10.2 6.4 18.2 9.35 7.4 2.75 12.35 6.25 13.55 9.75.55 1.45 1.35 3.35 1.85 4.25.5.85 1.2 11.2 1.55 23 .35 11.75.85 22.4 1.1 23.65.65 3.15-.65 2.9-11.6-2.05-13.4-6.1-14.9-7-19.95-11.85-10.25-9.9-14.3-26.4-11.35-46 1.85-12.35 3-14.1 6.65-10.1M209.5 263c0 2.5-11.15 4.5-19.15 3.4-13.45-1.8-7.45-5.35 8.65-5.1 8.5.15 10.5.5 10.5 1.7m-45.05 3.95c1.4 2.25-11.7 5.95-14.05 3.95-2.85-2.35 1.45-4.75 8.8-4.85 2.55 0 4.95.4 5.25.9M293.9 285.9c2.2 2.05 3.1 3.8 3.1 6.05 0 10.35-7.85 9-9.55-1.65-1.25-7.75 1.15-9.35 6.45-4.4M274 313c1.55 2.85-.15 5.4-5.25 7.85-7.8 3.8-12-.45-6-6.05 4.6-4.25 9.5-5.05 11.25-1.8m19 41.2c1.45 1.4 1.9 2.35 1.15 2.6-1.45.45-6.15-2.45-6.15-3.8 0-1.7 2.55-1.1 5 1.2m-4.9 2.55c.85.95 2.75 2.75 4.25 4 5.55 4.7-.3 19-10.55 25.75-6 3.95-7.1 3.5-6.35-2.75 2.8-23.35 7.35-33 12.65-27M266 402c-2.3 3.2-4 3.9-4 1.55 0-1.4 3.65-4.55 5.3-4.55.45 0-.15 1.35-1.3 3"/>
  <path d="M194.05 118.9c-2.7.75-4.05 3.1-1.75 3.1.8 0 2.55-.9 3.85-1.95 2.45-2.05 2-2.3-2.1-1.15"/>
</svg>
